<svg id="Layer_1" data-name="Layer 1" xmlns="http://www.w3.org/2000/svg" viewBox="0 0 144 144"><defs><style>.cls-1{fill:#f9fcf7;}.cls-2{fill:#010101;}</style></defs><rect class="cls-1" x="-1.25" y="-0.36" width="144.84" height="145.74" rx="41.11"/><circle class="cls-2" cx="71.67" cy="74.13" r="29.63"/><ellipse class="cls-2" cx="37.49" cy="41.03" rx="6.41" ry="3.6" transform="translate(-18.04 43.41) rotate(-50.04)"/><rect class="cls-2" x="56" y="31.67" width="4" height="52.05" rx="2" transform="translate(139.47 50.29) rotate(129.96)"/><ellipse class="cls-2" cx="110.08" cy="45.44" rx="3.6" ry="6.41" transform="translate(-5.8 72.89) rotate(-35.76)"/><rect class="cls-2" x="86.4" y="34.53" width="4" height="52.05" rx="2" transform="translate(85.88 -46.57) rotate(54.24)"/><ellipse class="cls-2" cx="35.32" cy="104.62" rx="3.6" ry="6.41" transform="translate(-54.48 40.36) rotate(-35.76)"/><rect class="cls-2" x="54.99" y="63.49" width="4" height="52.05" rx="2" transform="translate(17.66 188.06) rotate(-125.76)"/><ellipse class="cls-2" cx="109" cy="102.43" rx="6.41" ry="3.6" transform="translate(-37.81 131.03) rotate(-54.24)"/><rect class="cls-2" x="85.33" y="61.29" width="4" height="52.05" rx="2" transform="translate(-34.56 107.16) rotate(-54.24)"/><ellipse class="cls-2" cx="23.93" cy="72.43" rx="6.41" ry="3.6" transform="translate(-48.63 95.96) rotate(-89.69)"/><rect class="cls-2" x="48.35" y="46.95" width="4" height="52.05" rx="2" transform="translate(-22.89 122.93) rotate(-89.69)"/><ellipse class="cls-2" cx="118.41" cy="73.23" rx="3.6" ry="6.41" transform="translate(-0.4 0.64) rotate(-0.31)"/><rect class="cls-2" x="89.99" y="47.75" width="4" height="52.05" rx="2" transform="translate(18.72 166.16) rotate(-90.31)"/><ellipse class="cls-2" cx="72.23" cy="28.08" rx="3.6" ry="6.41" transform="translate(42.9 99.81) rotate(-89)"/><rect class="cls-2" x="69.37" y="28.47" width="4" height="52.05" rx="2" transform="translate(0.96 -1.23) rotate(1)"/><ellipse class="cls-2" cx="71.88" cy="116.94" rx="6.41" ry="3.6" transform="translate(-0.33 0.2) rotate(-0.16)"/><rect class="cls-2" x="69.4" y="64.5" width="4" height="52.05" rx="2" transform="translate(-0.25 0.2) rotate(-0.16)"/></svg>