<svg id="Layer_1" data-name="Layer 1" xmlns="http://www.w3.org/2000/svg" viewBox="0 0 144 144"><defs><style>.cls-1{fill:#010101;}</style></defs><path class="cls-1" d="M118.07,65.69c-1.67,0-3.07,2.06-3.46,4.82l-13.73.07a29.42,29.42,0,0,0-5-14.27l12-8.67c1.94,2,4.28,2.84,5.64,1.86,1.61-1.16,1.25-4.43-.82-7.3s-5-4.26-6.67-3.1c-1.22.89-1.3,3-.37,5.2L93.37,53.16a29.58,29.58,0,0,0-20.12-9.73l.22-13c2.77-.35,4.84-1.72,4.87-3.4,0-2-2.81-3.65-6.35-3.71s-6.43,1.5-6.46,3.49c0,1.51,1.6,2.83,3.94,3.41l-.23,13.21a29.43,29.43,0,0,0-16.39,6.43L41.29,40.19c1.09-2.14,1.17-4.24,0-5.21-1.52-1.28-4.6-.12-6.87,2.6s-2.88,5.94-1.36,7.22c1.29,1.08,3.68.42,5.76-1.44l11.05,9.25a29.57,29.57,0,0,0-8,17.18l-14.79-.08c-.38-2.76-1.78-4.81-3.46-4.82-2,0-3.62,2.84-3.64,6.38s1.58,6.42,3.57,6.43c1.51,0,2.82-1.64,3.36-4l14.81.08a29.54,29.54,0,0,0,6.72,18l-11.57,8.33c-1.94-2-4.28-2.84-5.64-1.86-1.61,1.16-1.25,4.43.82,7.3s5,4.26,6.67,3.1c1.23-.89,1.3-3,.37-5.2l12.13-8.74a29.51,29.51,0,0,0,17.87,7.78l0,9.94c-2.34.55-4,1.84-4,3.35,0,2,2.88,3.6,6.41,3.59s6.41-1.63,6.4-3.62c0-1.68-2-3.08-4.81-3.47l0-9.76a29.51,29.51,0,0,0,20-9.5l11.43,8.23c-.93,2.22-.86,4.32.37,5.2,1.61,1.16,4.6-.22,6.67-3.09s2.43-6.14.82-7.31c-1.37-1-3.7-.14-5.64,1.87l-11.14-8A29.49,29.49,0,0,0,101,74.59l13.83-.08c.55,2.35,1.85,4,3.36,4,2,0,3.59-2.89,3.57-6.43S120.06,65.68,118.07,65.69Z"/></svg>