<svg id="Layer_1" data-name="Layer 1" xmlns="http://www.w3.org/2000/svg" xmlns:xlink="http://www.w3.org/1999/xlink" viewBox="0 0 576 576"><defs><style>.cls-1,.cls-11,.cls-3{fill:none;}.cls-2{fill:#231f20;}.cls-3{stroke:#bdd631;stroke-width:6.06px;}.cls-11,.cls-13,.cls-3,.cls-7{stroke-miterlimit:10;}.cls-4{fill:#fcb01d;}.cls-5{fill:url(#New_Pattern_3);}.cls-6{fill:#f9fcf7;}.cls-13,.cls-7,.cls-9{fill:#fff;}.cls-13,.cls-7{stroke:#010101;}.cls-7{stroke-width:5px;}.cls-8{fill:#ddd;}.cls-10{fill:#010101;}.cls-11{stroke:#231f20;stroke-width:4.59px;}.cls-12{fill:#e17171;}.cls-13{stroke-width:4px;}</style><pattern id="New_Pattern_3" data-name="New Pattern 3" width="100" height="95.45" patternTransform="translate(-65 -61.09)" patternUnits="userSpaceOnUse" viewBox="0 0 100 95.45"><rect class="cls-1" width="100" height="95.45"/><rect class="cls-2" width="100" height="95.45"/><path class="cls-1" d="M60.54,45.79c-.56-1.44-2.67-1.67-3.93-.79a6.48,6.48,0,0,0-2.17,4A13,13,0,0,1,53,53.31c-1.32,2-3.78,2.78-6,3.46"/><path class="cls-3" d="M26.65,64.89a8.58,8.58,0,0,0-7.23-9.52c-2.76-.31-5.91.7-8.12-1s-1.66-5.9,1-6.91"/><path class="cls-3" d="M90.79,42.67a8.58,8.58,0,0,0-7.22-9.52c-2.77-.31-5.92.7-8.13-1s-1.65-5.9,1-6.91"/><path class="cls-4" d="M32.4,18.56h0A3.75,3.75,0,0,0,32.68,22h0a3.73,3.73,0,0,1-3.46,5.72h0A3.7,3.7,0,0,0,26,29.08h0a3.73,3.73,0,0,1-6.51-1.54h0a3.73,3.73,0,0,0-2.26-2.62h0a3.73,3.73,0,0,1-.56-6.67h0a3.71,3.71,0,0,0,1.8-3h0a3.73,3.73,0,0,1,6.17-2.59h0a3.72,3.72,0,0,0,3.37.8h0A3.73,3.73,0,0,1,32.4,18.56Z"/><path class="cls-4" d="M73.54,76.46h0a2.88,2.88,0,0,0,.22,2.67h0a2.88,2.88,0,0,1-2.68,4.41h0a2.89,2.89,0,0,0-2.47,1h0a2.87,2.87,0,0,1-5-1.18h0a2.87,2.87,0,0,0-1.75-2h0a2.88,2.88,0,0,1-.43-5.15h0a2.88,2.88,0,0,0,1.39-2.29h0a2.88,2.88,0,0,1,4.76-2h0a2.85,2.85,0,0,0,2.61.62h0A2.88,2.88,0,0,1,73.54,76.46Z"/></pattern></defs><rect class="cls-5" x="80.15" y="134.39" width="417.91" height="349.44" rx="52.45"/><rect class="cls-6" x="80.15" y="134.39" width="417.91" height="349.44" rx="52.45"/><path class="cls-7" d="M189.44,276.47c7.07,5.22,14.5,10.59,23.16,12.07s18.91-2.27,21.85-10.56a14.25,14.25,0,0,1,.28-19c3.73,4.33,12.17,2.27,13.49-3.28l-10.87-6.78a48.54,48.54,0,0,1,11.83-27.94l-12-6.78a284.79,284.79,0,0,0-31,32.71c-4.62,5.71-9.1,11.75-11.23,18.78s-1.54,15.28,3.23,20.86"/><path class="cls-8" d="M422.52,459.07S489.76,362,433.63,322.84s-173-29.76-176.82-24.82-112-5.58-118.44,66.33S160,483,160,483H417.84Z"/><path class="cls-9" d="M283.57,338.3c-11,0-15.38-9.47-17-15.12-4.29-14.79.13-37.09,13.33-45.46A30.49,30.49,0,0,1,296,273.07c9.08,0,20.45,4.56,22.62,17.42,2.9,17.14-7.19,37.09-22.48,44.47a29.45,29.45,0,0,1-12.6,3.34Z"/><path class="cls-10" d="M296,275.07c8.3,0,18.69,4.13,20.65,15.75,1.32,7.79-.19,16.52-4.23,24.57s-10.15,14.39-17.15,17.77a27.58,27.58,0,0,1-11.73,3.14c-9.2,0-13.28-7.43-15.09-13.67a46.5,46.5,0,0,1,.22-24.43c2.35-8.6,6.7-15.27,12.25-18.79A28.45,28.45,0,0,1,296,275.07m0-4a32.41,32.41,0,0,0-17.22,5c-21.87,13.86-21.86,64.27,4.76,64.27A31.29,31.29,0,0,0,297,336.76c16.19-7.82,26.58-28.86,23.58-46.6-2.15-12.75-13-19.09-24.59-19.09Z"/><path class="cls-9" d="M267.49,308.69c22.49,6.09,47.24-6.28,60.62-25.27s17.11-43.15,16.36-66.25c-.39-11.79-2-24.06-8.67-33.83a44.48,44.48,0,0,0-16.54-14.17,54.52,54.52,0,0,0-72.54,22.1c-6.22,11.3-8.13,24.34-9.94,37.06L232.12,261C244.17,279,255.44,290.76,267.49,308.69Z"/><path class="cls-11" d="M249.32,240.27a33.93,33.93,0,0,0,14.34-27.4c-8.23-2.11-13.76-2.09-22.18-1"/><path class="cls-11" d="M285.31,214.13a24.52,24.52,0,0,1,27.25,7.77"/><path class="cls-2" d="M273.39,198.18c5.94-2.73,10.91-7.22,16.78-10.09,14.93-7.29,34.87-1.84,44,12,5.57,8.46,8.92,20.56,18.86,22.53,7.53-21.8,1.3-47.71-15.31-63.7-16.95-16.33-44.11-21.61-65.81-12.25-9.1,3.92-44.78,26.07-42.78,38.84,1.49,9.5,24,4.6,30.6,5.25-1.62,1.61-2.78,4.43-4.43,6.05C259.77,201.73,267.85,200.73,273.39,198.18Z"/><path class="cls-7" d="M374.52,295.27c-8.74.9-17.87,1.76-26.08-1.37S333.3,282.34,335,273.71a14.25,14.25,0,0,0,9.43-16.54c-5.41,1.83-11.64-4.23-10-9.69l12.8-.31a48.51,48.51,0,0,0,4-30.07l13.79.26a284.86,284.86,0,0,1,10.13,43.93c1.08,7.27,1.87,14.75.14,21.89s-6.44,13.94-13.39,16.32"/><path class="cls-8" d="M376.08,485.92a48.63,48.63,0,0,1-34.24-14.15c-14.71-15.08-17.7-38.25-18.66-56.76a364.67,364.67,0,0,1,14.66-123.14c2.58-.88,5.53-2.06,8.63-3.3,9.08-3.63,20.38-8.14,29.77-8.14,5.52,0,9.74,1.53,12.89,4.68,4.3,4,6.77,9.73,8.62,14.79,5.42,14.79,8.19,30.63,10.87,46L420,410.75c2.16,12.3,4.6,26.26,1.51,39.11a48.47,48.47,0,0,1-33.36,34.46A45.13,45.13,0,0,1,376.08,485.92Z"/><path class="cls-10" d="M376.24,278.43v4h0c5,0,8.72,1.34,11.48,4.1l0,0,.05.05c3.94,3.68,6.29,9.13,8.06,14,5.36,14.62,8.12,30.37,10.78,45.6l8.05,45.95L418,411.09c2.13,12.12,4.53,25.85,1.54,38.3a46.41,46.41,0,0,1-31.95,33,43.26,43.26,0,0,1-11.52,1.53,46.6,46.6,0,0,1-32.81-13.54c-14.24-14.61-17.15-37.32-18.09-55.47a362.55,362.55,0,0,1,14.29-121.49c2.38-.85,5-1.9,7.74-3,8.92-3.56,20-8,29-8v-4m0,0c-13.47,0-30,8.63-40,11.87a368.76,368.76,0,0,0-15,124.82c1.09,20.82,4.67,43.12,19.23,58.05a50.29,50.29,0,0,0,35.67,14.75,47.36,47.36,0,0,0,12.58-1.67,50.24,50.24,0,0,0,34.78-35.92c3.13-13.05.83-26.71-1.49-39.93Q416.28,378,410.6,345.5c-2.74-15.64-5.51-31.38-11-46.28-2.08-5.68-4.67-11.39-9.08-15.52-3.83-3.83-8.82-5.27-14.31-5.27Z"/><path class="cls-8" d="M200.6,485.34a45.6,45.6,0,0,1-12-1.6,48.48,48.48,0,0,1-33.36-34.47c-3.09-12.85-.64-26.8,1.51-39.11l11.36-64.9c2.68-15.32,5.45-31.16,10.87-45.94,1.86-5.06,4.33-10.77,8.58-14.75,3.19-3.19,7.41-4.72,12.94-4.72,9.39,0,20.69,4.51,29.76,8.14,3.1,1.23,6,2.41,8.64,3.3A364.63,364.63,0,0,1,253.5,414.43c-1,18.5-3.95,41.68-18.65,56.76a48.67,48.67,0,0,1-34.25,14.15Z"/><path class="cls-10" d="M200.45,281.85c9,0,20.1,4.43,29,8,2.74,1.1,5.37,2.15,7.75,3a362.78,362.78,0,0,1,14.29,121.49c-.95,18.15-3.86,40.86-18.1,55.46a46.59,46.59,0,0,1-32.81,13.55,43.72,43.72,0,0,1-11.52-1.53,46.41,46.41,0,0,1-31.94-33c-3-12.45-.59-26.19,1.53-38.3l5.68-32.45L170,345.61c2.67-15.23,5.42-31,10.78-45.6,1.78-4.84,4.12-10.29,8.06-14l0,0,.05-.05c2.75-2.75,6.51-4.09,11.48-4.09m0-4c-5.5,0-10.48,1.43-14.31,5.26-4.42,4.14-7,9.84-9.08,15.52-5.47,14.91-8.23,30.65-11,46.29q-5.68,32.44-11.36,64.9c-2.31,13.21-4.62,26.88-1.48,39.92A50.24,50.24,0,0,0,188,485.67a47.77,47.77,0,0,0,12.58,1.67,50.3,50.3,0,0,0,35.68-14.76c14.55-14.92,18.14-37.23,19.22-58.05a368.2,368.2,0,0,0-15-124.81c-10-3.25-26.55-11.87-40-11.87Z"/><rect class="cls-1" x="85.94" y="121.29" width="417.91" height="349.44" rx="52.45"/><rect class="cls-1" x="86.09" y="122.03" width="417.91" height="349.44" rx="52.45"/><path class="cls-12" d="M263.12,235.49c5.29,0,19.25,5.63,19.25,5.63s29.35-8.13,42.83-15.93,23.58,1.25,24.06,6.56-.48,13.11-22.62,48.26-72.18,32.79-72.18,32.79S229.27,293.91,228,275.32s11.55-38.42,11.55-38.42S257.82,235.49,263.12,235.49Zm42.83,6.8s18.93,23.19,18.29,29.75c0,0,21.49-27.18,21.17-35.61s-9.14-8.9-13-8S310.6,242.83,306,242.29Z"/><path class="cls-13" d="M325.67,236.19c2.37-1.84,4.79-3.71,7.53-4.65a8.48,8.48,0,0,1,8.24,1.1c2.88,2.4,3.73,6.91,3.55,11a29,29,0,0,1-6.79,17.47,22.59,22.59,0,0,1-15.28,7.86"/></svg>