<svg id="Layer_1" data-name="Layer 1" xmlns="http://www.w3.org/2000/svg" viewBox="0 0 576 576"><defs><style>.cls-1,.cls-3,.cls-9{fill:#fff;}.cls-1,.cls-9{stroke:#010101;}.cls-1,.cls-5,.cls-9{stroke-miterlimit:10;}.cls-1{stroke-width:5px;}.cls-2{fill:#ddd;}.cls-4{fill:#010101;}.cls-5,.cls-7{fill:none;}.cls-5{stroke:#231f20;stroke-width:4.59px;}.cls-6{fill:#231f20;}.cls-8{fill:#e17171;}.cls-9{stroke-width:4px;}</style></defs><path class="cls-1" d="M210,258.48c7.08,5.22,14.5,10.59,23.17,12.07S252.1,268.28,255,260a14.27,14.27,0,0,1,.28-19c3.73,4.32,12.18,2.27,13.5-3.29l-10.88-6.78A48.61,48.61,0,0,1,269.76,203l-12-6.78a287.26,287.26,0,0,0-31,32.7c-4.61,5.71-9.1,11.76-11.23,18.78s-1.53,15.28,3.24,20.86"/><path class="cls-2" d="M443.1,441.08S510.34,344,454.21,304.85,281.24,275.1,277.4,280s-112-5.59-118.44,66.33,21.63,118.68,21.63,118.68H438.43Z"/><path class="cls-3" d="M304.15,320.31c-11,0-15.37-9.47-17-15.11-4.29-14.79.12-37.1,13.33-45.47a30.51,30.51,0,0,1,16.14-4.64c9.08,0,20.46,4.56,22.63,17.41,2.89,17.14-7.19,37.09-22.48,44.48a29.57,29.57,0,0,1-12.6,3.33Z"/><path class="cls-4" d="M316.61,257.09c8.3,0,18.69,4.12,20.65,15.75,1.32,7.79-.18,16.51-4.22,24.56s-10.15,14.39-17.15,17.77a27.53,27.53,0,0,1-11.74,3.15c-9.19,0-13.28-7.44-15.09-13.68-2.11-7.26-2-16.16.23-24.43,2.34-8.59,6.69-15.27,12.25-18.79a28.49,28.49,0,0,1,15.07-4.33m0-4a32.4,32.4,0,0,0-17.22,5c-21.86,13.87-21.86,64.28,4.76,64.28a31.32,31.32,0,0,0,13.48-3.54c16.18-7.82,26.58-28.86,23.58-46.61-2.15-12.75-13-19.08-24.6-19.08Z"/><path class="cls-3" d="M288.08,290.7c22.48,6.1,47.23-6.27,60.62-25.27s17.1-43.15,16.35-66.24c-.38-11.8-2-24.07-8.66-33.83a44.5,44.5,0,0,0-16.55-14.17,54.52,54.52,0,0,0-72.54,22.1c-6.21,11.3-8.13,24.33-9.94,37.06l-4.65,32.7C264.76,261,276,272.77,288.08,290.7Z"/><path class="cls-5" d="M269.9,222.29a33.9,33.9,0,0,0,14.34-27.4c-8.23-2.12-13.76-2.1-22.18-1"/><path class="cls-5" d="M305.89,196.14a24.54,24.54,0,0,1,27.25,7.78"/><path class="cls-6" d="M294,180.2c5.93-2.73,10.91-7.22,16.78-10.09,14.92-7.29,34.87-1.84,44,12,5.58,8.46,8.92,20.55,18.86,22.53,7.53-21.8,1.31-47.71-15.3-63.71-16.95-16.32-44.12-21.61-65.82-12.25-9.1,3.93-44.78,26.07-42.77,38.84,1.48,9.5,24,4.6,30.59,5.26-1.62,1.6-2.77,4.42-4.43,6.05C280.35,183.74,288.43,182.75,294,180.2Z"/><path class="cls-1" d="M395.11,277.28c-8.75.91-17.87,1.76-26.09-1.36s-15.13-11.56-13.45-20.19A14.26,14.26,0,0,0,365,239.18c-5.4,1.84-11.63-4.22-9.95-9.68l12.81-.31a48.61,48.61,0,0,0,4-30.08l13.78.26a285.26,285.26,0,0,1,10.13,43.94c1.08,7.26,1.87,14.75.14,21.88s-6.44,13.94-13.38,16.33"/><path class="cls-2" d="M396.67,467.94a48.65,48.65,0,0,1-34.25-14.15c-14.7-15.08-17.69-38.26-18.65-56.76a364.63,364.63,0,0,1,14.65-123.14c2.59-.89,5.54-2.07,8.64-3.3,9.07-3.63,20.37-8.14,29.76-8.14,5.53,0,9.75,1.53,12.9,4.68,4.29,4,6.76,9.73,8.62,14.79,5.42,14.79,8.19,30.63,10.87,45.94l11.36,64.9c2.15,12.31,4.6,26.26,1.5,39.11a48.45,48.45,0,0,1-33.35,34.47A45.6,45.6,0,0,1,396.67,467.94Z"/><path class="cls-4" d="M396.82,260.45v4h0c5,0,8.73,1.34,11.48,4.09l.05,0,0,0c3.94,3.69,6.28,9.14,8.06,14,5.36,14.62,8.11,30.37,10.78,45.6l11.36,64.9c2.12,12.11,4.52,25.85,1.53,38.3a46.41,46.41,0,0,1-31.95,33,43.59,43.59,0,0,1-11.51,1.53,46.63,46.63,0,0,1-32.82-13.55c-14.23-14.6-17.14-37.31-18.09-55.46a362.78,362.78,0,0,1,14.29-121.49c2.38-.85,5-1.9,7.75-3,8.92-3.56,20-8,29-8v-4m0,0c-13.46,0-30,8.62-40,11.87a368.2,368.2,0,0,0-15,124.81c1.08,20.82,4.66,43.13,19.22,58.05a50.3,50.3,0,0,0,35.68,14.76,47.77,47.77,0,0,0,12.58-1.67A50.24,50.24,0,0,0,444,432.34c3.14-13,.83-26.71-1.48-39.92q-5.69-32.46-11.36-64.9c-2.74-15.64-5.5-31.38-11-46.29-2.08-5.68-4.66-11.38-9.08-15.52-3.83-3.83-8.81-5.26-14.31-5.26Z"/><path class="cls-2" d="M221.19,467.35a45.54,45.54,0,0,1-12.05-1.6,48.47,48.47,0,0,1-33.36-34.46c-3.09-12.85-.65-26.81,1.5-39.11l11.36-64.9c2.68-15.32,5.46-31.16,10.88-45.94,1.85-5.07,4.32-10.78,8.57-14.75,3.2-3.2,7.42-4.73,12.94-4.73,9.39,0,20.69,4.51,29.77,8.14,3.1,1.24,6,2.42,8.63,3.3a364.73,364.73,0,0,1,14.66,123.15c-1,18.5-3.95,41.67-18.66,56.75a48.63,48.63,0,0,1-34.24,14.15Z"/><path class="cls-4" d="M221,263.86c9,0,20.11,4.44,29,8,2.75,1.09,5.37,2.14,7.75,3a362.58,362.58,0,0,1,14.29,121.49c-.94,18.16-3.85,40.87-18.09,55.47a46.6,46.6,0,0,1-32.81,13.54,43.26,43.26,0,0,1-11.52-1.53,46.41,46.41,0,0,1-31.95-33c-3-12.45-.59-26.18,1.53-38.3l11.36-64.9c2.67-15.23,5.43-31,10.79-45.6,1.77-4.84,4.12-10.28,8.06-14l0-.05.05,0c2.76-2.76,6.51-4.1,11.48-4.1m0-4c-5.49,0-10.48,1.44-14.31,5.27-4.41,4.13-7,9.84-9.08,15.52-5.46,14.91-8.23,30.64-11,46.28q-5.67,32.46-11.36,64.9c-2.31,13.22-4.61,26.88-1.48,39.93a50.22,50.22,0,0,0,34.78,35.92,47.36,47.36,0,0,0,12.58,1.67,50.31,50.31,0,0,0,35.67-14.75c14.56-14.93,18.14-37.23,19.23-58.05a368.76,368.76,0,0,0-15-124.82c-10-3.24-26.55-11.87-40-11.87Z"/><rect class="cls-7" x="106.52" y="103.31" width="417.91" height="349.44" rx="52.45"/><rect class="cls-7" x="106.68" y="104.04" width="417.91" height="349.44" rx="52.45"/><path class="cls-8" d="M283.7,217.51c5.3,0,19.25,5.62,19.25,5.62s29.36-8.12,42.83-15.93,23.59,1.25,24.07,6.56-.48,13.12-22.62,48.26S275,294.82,275,294.82s-25.19-18.9-26.47-37.48,11.55-38.42,11.55-38.42S278.41,217.51,283.7,217.51Zm42.83,6.79s18.93,23.2,18.29,29.76c0,0,21.5-27.18,21.18-35.61s-9.15-8.91-13-8S331.19,224.85,326.53,224.3Z"/><path class="cls-9" d="M346.26,218.21c2.37-1.85,4.78-3.72,7.53-4.66a8.49,8.49,0,0,1,8.24,1.11c2.88,2.39,3.73,6.9,3.54,11a28.94,28.94,0,0,1-6.79,17.47,22.54,22.54,0,0,1-15.28,7.85"/></svg>